<svg xmlns="http://www.w3.org/2000/svg" viewBox="0 0 307.92 62.04">
  <title>Asset 1</title>
  <g id="Layer_2" data-name="Layer 2">
    <g id="Calque_1" data-name="Calque 1">
      <path
        d="M52.32,39c0-12.59,10.75-22.94,23.9-22.94S100.28,26.44,100.28,39c0,12.75-10.91,23-24.06,23S52.32,51.78,52.32,39Zm11.79,0c0,7.29,5.21,12.59,12.11,12.59S88.33,46.16,88.33,39a12.11,12.11,0,1,0-24.22,0Z"/>
      <path
        d="M104.06,39c0-12.59,10.75-22.94,23.9-22.94S152,26.44,152,39c0,12.75-10.9,23-24.06,23S104.06,51.78,104.06,39Zm11.79,0c0,7.29,5.22,12.59,12.11,12.59S140.07,46.16,140.07,39a12.11,12.11,0,1,0-24.22,0Z"/>
      <path
        d="M208.21,39c0-12.59,10.75-22.94,23.9-22.94S256.17,26.44,256.17,39c0,12.75-10.91,23-24.06,23S208.21,51.78,208.21,39ZM220,39c0,7.29,5.21,12.59,12.11,12.59S244.22,46.16,244.22,39A12.11,12.11,0,1,0,220,39Z"/>
      <path
        d="M260,39c0-12.59,10.74-22.94,23.9-22.94S307.92,26.44,307.92,39c0,12.75-10.91,23-24.06,23S260,51.78,260,39Zm11.79,0c0,7.29,5.21,12.59,12.11,12.59S296,46.16,296,39a12.11,12.11,0,1,0-24.22,0Z"/>
      <polygon points="30.27 42.82 12.65 0 0 0 25.1 61.01 35.48 61.01 60.79 0 48.04 0 30.27 42.82"/>
      <path
        d="M192,1.85l0,17.48a24.59,24.59,0,0,0-12.23-3.24c-13.16,0-23.9,10.35-23.9,22.94,0,12.75,10.74,23,23.9,23a24.68,24.68,0,0,0,12.23-3.22V61h11.87l0-59.15Zm-12.2,49.77c-6.9,0-12.11-5.3-12.11-12.59a12.11,12.11,0,1,1,24.22,0C191.94,46.16,186.64,51.62,179.83,51.62Z"/>
    </g>
  </g>
</svg>
